<svg width="51" height="64" viewBox="0 0 51 64" fill="none" xmlns="http://www.w3.org/2000/svg">
<path d="M25.5 0C16.7121 0 9.5625 7.1776 9.5625 16V25.6H6.375C2.85919 25.6 0 28.4704 0 32V57.6C0 61.1296 2.85919 64 6.375 64H44.625C48.1408 64 51 61.1296 51 57.6V32C51 28.4704 48.1408 25.6 44.625 25.6H41.4375V16C41.4375 7.1776 34.2879 0 25.5 0ZM44.625 32L44.6314 57.6H6.375V32H44.625ZM15.9375 25.6V16C15.9375 10.7072 20.2279 6.4 25.5 6.4C30.7721 6.4 35.0625 10.7072 35.0625 16V25.6H15.9375Z" fill="white"/>
</svg>
