<svg width="19" height="28" viewBox="0 0 19 28" fill="none" xmlns="http://www.w3.org/2000/svg">
<path d="M18.7302 9.91966C17.693 8.71139 16.4428 7.71161 15.0244 6.96532C14.0488 4.76438 11.8798 3.22916 9.36269 3.22916C6.8456 3.22916 4.68369 4.76438 3.71047 6.96532C2.29209 7.71161 1.04183 8.71376 0.0046812 9.91966C-0.161073 4.47297 4.09644 0 9.36506 0C14.6384 0 18.8888 4.47297 18.7302 9.91966Z" fill="white"/>
<path d="M14.0297 14.1674C12.8954 12.8478 11.2237 12.002 9.36485 12.002C8.69473 12.002 8.04356 12.1158 7.43737 12.3219V8.97662C8.06724 8.84158 8.70894 8.77051 9.36485 8.77051C11.8109 8.77051 14.0368 9.73712 15.7038 11.3126C15.7961 11.4074 15.8932 11.4998 15.9856 11.5898C16.1916 11.7864 16.381 12.0044 16.5562 12.2295C16.6415 12.3385 16.7243 12.4474 16.8096 12.5635C16.8854 12.6559 16.954 12.7554 17.0227 12.8549C17.0582 12.9047 17.0843 12.9473 17.1127 12.99C17.1198 12.9971 17.1269 13.0113 17.134 13.0184C17.1814 13.0966 17.2382 13.1819 17.2855 13.2672C17.3613 13.3809 17.4229 13.4946 17.4868 13.6083C17.4939 13.6154 17.501 13.6225 17.501 13.6297C17.5697 13.7576 17.6384 13.8855 17.7023 14.0063C17.6881 14.0348 17.6739 14.0703 17.6478 14.113C17.6407 14.1343 17.6265 14.1485 17.6123 14.1769C17.591 14.2054 17.5697 14.248 17.5507 14.2906C17.4892 14.4044 17.4063 14.5394 17.3163 14.7029C17.295 14.7384 17.3069 14.8 17.3069 14.8C17.3069 14.8 17.2477 14.8237 17.2405 14.8308C16.999 15.2644 16.6675 15.833 16.2792 16.4987C14.4156 19.6852 11.2663 25.0229 9.94499 27.1362C9.67268 27.5698 9.05703 27.5698 8.78472 27.1362C7.46342 25.0253 4.31882 19.6923 2.46001 16.5034C2.07404 15.8353 1.74016 15.2596 1.49153 14.8284C1.48443 14.8213 1.47732 14.8071 1.47732 14.8C1.45601 14.7645 1.4347 14.736 1.41576 14.7005C1.39444 14.6579 1.37313 14.6223 1.34709 14.5868C1.28552 14.4731 1.22869 14.3736 1.18133 14.2883C1.16002 14.2456 1.13871 14.203 1.11977 14.1746C1.10556 14.1461 1.09845 14.1319 1.08425 14.1106C1.06294 14.0679 1.04162 14.0324 1.02979 14.004C1.09845 13.876 1.16002 13.7481 1.23106 13.6273C1.29973 13.5065 1.3755 13.3785 1.45127 13.2577C1.45838 13.2435 1.46548 13.2222 1.47969 13.2079C1.54126 13.1084 1.60992 13.0018 1.68096 12.9023C1.75674 12.7886 1.83961 12.6749 1.92249 12.5612C1.92249 12.5541 1.92959 12.5469 1.92959 12.5469C2.00537 12.4545 2.07404 12.3622 2.14271 12.2769C2.15691 12.2484 2.17823 12.2271 2.19717 12.2058C2.28005 12.0992 2.37003 11.9997 2.46001 11.9002C2.54999 11.7936 2.64707 11.6869 2.74416 11.5874L3.04252 11.2889L9.36722 21.9407C9.58507 21.6943 12.5023 16.7593 14.0297 14.1674Z" fill="white"/>
</svg>
