<svg width="24" height="22" viewBox="0 0 24 22" fill="none" xmlns="http://www.w3.org/2000/svg">
<path d="M20.5278 5.27778H2.63889C2.46945 5.27778 2.30694 5.21047 2.18713 5.09065C2.06731 4.97084 2 4.80833 2 4.63889C2 4.46945 2.06731 4.30694 2.18713 4.18713C2.30694 4.06731 2.46945 4 2.63889 4H20.5278C20.6972 4 20.8597 4.06731 20.9795 4.18713C21.0994 4.30694 21.1667 4.46945 21.1667 4.63889C21.1667 4.80833 21.0994 4.97084 20.9795 5.09065C20.8597 5.21047 20.6972 5.27778 20.5278 5.27778Z" fill="url(#paint0_linear_246_47)"/>
<path d="M20.5278 11.5556H2.63889C2.46945 11.5556 2.30694 11.4882 2.18713 11.3684C2.06731 11.2486 2 11.0861 2 10.9167C2 10.7472 2.06731 10.5847 2.18713 10.4649C2.30694 10.3451 2.46945 10.2778 2.63889 10.2778H20.5278C20.6972 10.2778 20.8597 10.3451 20.9795 10.4649C21.0994 10.5847 21.1667 10.7472 21.1667 10.9167C21.1667 11.0861 21.0994 11.2486 20.9795 11.3684C20.8597 11.4882 20.6972 11.5556 20.5278 11.5556Z" fill="url(#paint1_linear_246_47)"/>
<path d="M20.5278 17.8333H2.63889C2.46945 17.8333 2.30694 17.766 2.18713 17.6462C2.06731 17.5264 2 17.3639 2 17.1944C2 17.025 2.06731 16.8625 2.18713 16.7427C2.30694 16.6229 2.46945 16.5556 2.63889 16.5556H20.5278C20.6972 16.5556 20.8597 16.6229 20.9795 16.7427C21.0994 16.8625 21.1667 17.025 21.1667 17.1944C21.1667 17.3639 21.0994 17.5264 20.9795 17.6462C20.8597 17.766 20.6972 17.8333 20.5278 17.8333Z" fill="url(#paint2_linear_246_47)"/>
<defs>
<linearGradient id="paint0_linear_246_47" x1="1.99994" y1="4.63892" x2="21.1672" y2="4.63892" gradientUnits="userSpaceOnUse">
<stop stop-color="#659E89"/>
<stop offset="0.3212" stop-color="#619B8A"/>
<stop offset="1" stop-color="#A1C181"/>
</linearGradient>
<linearGradient id="paint1_linear_246_47" x1="1.99994" y1="10.9167" x2="21.1672" y2="10.9167" gradientUnits="userSpaceOnUse">
<stop stop-color="#659E89"/>
<stop offset="0.3212" stop-color="#619B8A"/>
<stop offset="1" stop-color="#A1C181"/>
</linearGradient>
<linearGradient id="paint2_linear_246_47" x1="1.99994" y1="17.1945" x2="21.1672" y2="17.1945" gradientUnits="userSpaceOnUse">
<stop stop-color="#659E89"/>
<stop offset="0.3212" stop-color="#619B8A"/>
<stop offset="1" stop-color="#A1C181"/>
</linearGradient>
</defs>
</svg>
